<?xml version="1.0" standalone="no"?>
<!-- Generator: Adobe Fireworks 10, Export SVG Extension by Aaron Beall (http://fireworks.abeall.com) . Version: 0.6.1  -->
<!DOCTYPE svg PUBLIC "-//W3C//DTD SVG 1.1//EN" "http://www.w3.org/Graphics/SVG/1.1/DTD/svg11.dtd">
<svg id="london3.fw-Page%201" viewBox="0 0 625 86" style="background-color:#ffffff00" version="1.1"
	xmlns="http://www.w3.org/2000/svg" xmlns:xlink="http://www.w3.org/1999/xlink" xml:space="preserve"
	x="0px" y="0px" width="625px" height="86px"
>
	<g id="Layer%201">
		<g>
			<path id="st1" d="M 156.9004 49.34 C 156.9004 49.34 145.8604 56.62 126.1004 44.46 C 108.3404 33.58 103.2204 31.58 93.8604 31.58 C 81.7004 31.58 71.3004 39.82 71.0604 51.18 " stroke="#010101" stroke-width="2" fill="none"/>
			<path id="st12" d="M 114.9804 50.94 C 116.6604 55.9 120.5004 58.14 125.5404 58.38 C 131.5404 58.62 132.4204 54.38 132.4204 54.38 C 132.1804 56.54 130.5804 58.3 128.5004 58.94 C 124.7404 60.06 119.9404 59.26 117.3004 56.06 C 114.6604 52.86 113.2204 45.42 117.3004 40.54 C 121.3804 35.66 128.2604 31.82 139.9404 32.3 C 151.6204 32.78 160.6604 38.22 159.8604 44.86 C 159.0604 51.5 148.1004 52.3 141.4604 51.5 C 137.4604 50.94 132.7404 50.22 124.0204 45.34 C 115.3004 40.46 111.1404 38.3 102.1004 36.46 C 92.9804 34.62 74.5804 33.18 71.5404 48.06 C 68.8204 60.86 79.7004 64.94 87.9404 64.94 C 94.9804 64.94 100.8204 62.62 102.6604 56.7 C 104.5004 50.78 98.0204 46.86 93.7004 46.3 C 90.2604 45.82 86.3404 46.46 84.1004 49.02 C 83.4604 49.74 82.9804 50.54 82.7404 51.42 C 82.7404 51.42 83.7004 47.02 87.2204 45.34 C 90.6604 43.82 94.6604 44.14 97.7804 46.22 C 101.1404 48.46 103.0604 51.02 102.9804 54.38 " stroke="#010101" stroke-width="2" fill="none"/>
			<path id="st13" d="M 553.9404 51.18 C 553.7804 39.82 543.3804 31.58 531.1404 31.58 C 521.7804 31.58 516.6604 33.58 498.9004 44.46 C 479.0604 56.62 468.0204 49.34 468.0204 49.34 " stroke="#010101" stroke-width="2" fill="none"/>
			<path id="st14" d="M 522.0204 54.3 C 521.9404 50.94 523.8604 48.38 527.2204 46.14 C 530.3404 44.06 534.3404 43.74 537.7804 45.26 C 541.3804 46.94 542.2604 51.34 542.2604 51.34 C 541.9404 50.46 541.5404 49.66 540.9004 48.94 C 538.6604 46.46 534.6604 45.74 531.3004 46.22 C 526.9804 46.78 520.5004 50.78 522.3404 56.62 C 524.1804 62.46 530.0204 64.86 537.0604 64.86 C 545.3004 64.86 556.1804 60.78 553.5404 47.98 C 550.5004 33.18 532.0204 34.54 522.9804 36.38 C 513.9404 38.22 509.8604 40.46 501.1404 45.34 C 492.3404 50.22 487.6204 50.94 483.7004 51.5 C 477.0604 52.38 466.1004 51.5 465.3004 44.86 C 464.5004 38.22 473.5404 32.78 485.2204 32.3 C 496.9004 31.82 503.9404 35.58 507.9404 40.46 C 511.9404 45.34 510.5804 52.78 507.9404 55.98 C 505.3004 59.18 500.5004 60.06 496.7404 58.86 C 494.6604 58.3 493.0604 56.54 492.8204 54.3 C 492.8204 54.3 493.6204 58.54 499.7004 58.3 C 504.8204 58.06 508.6604 55.82 510.2604 50.86 " stroke="#010101" stroke-width="2" fill="none"/>
			<path d="M 181.7504 66.35 C 181.7504 67.025 182.1254 67.35 182.9004 67.35 L 201.1004 67.35 C 201.9254 67.35 202.3879 67.375 202.4879 67.425 C 202.8379 67.525 203.0254 67.8625 203.0254 68.425 C 203.0254 69 202.8379 69.325 202.4879 69.425 C 202.3379 69.475 201.8754 69.5 201.1004 69.5 L 177.5254 69.5 C 174.7004 69.5 173.3004 68.8625 173.3004 67.575 L 173.3004 18.625 C 173.3004 17.35 174.7004 16.7 177.5254 16.7 C 180.3379 16.7 181.7504 17.35 181.7504 18.625 L 181.7504 66.35 L 181.7504 66.35 Z" fill="#000000"/>
			<path d="M 212.7604 63.175 C 217.6229 67.925 224.0479 70.3 232.0354 70.3 C 239.5104 70.3 245.6104 67.8125 250.3479 62.825 C 255.0854 57.85 257.4604 51.675 257.4604 44.3 C 257.4604 36.175 255.1604 29.5375 250.5854 24.4 C 245.9979 19.275 239.8104 16.7 232.0354 16.7 C 224.5604 16.7 218.2729 19.45 213.1479 24.9375 C 208.0229 30.4375 205.4604 36.9375 205.4604 44.45 C 205.4604 52.175 207.8854 58.425 212.7604 63.175 L 212.7604 63.175 ZM 218.4854 26.9375 C 221.7604 21.7125 226.5479 19.1 232.8604 19.1 C 239.5104 19.1 244.9479 21.6625 249.1479 26.7875 C 253.0854 31.625 255.0604 37.4875 255.0604 44.3875 C 255.0604 50.7 252.8729 56.2 248.5229 60.875 C 244.1729 65.5625 238.8979 67.9 232.6979 67.9 C 226.5979 67.9 221.9729 65.7625 218.7979 61.4625 C 215.7729 57.375 214.2604 51.6875 214.2604 44.3875 C 214.2604 37.2375 215.6604 31.425 218.4854 26.9375 L 218.4854 26.9375 Z" fill="#000000"/>
			<path d="M 265.0954 16.7 C 264.5204 16.7 264.1954 16.8875 264.0954 17.25 C 264.0454 17.4 264.0204 17.875 264.0204 18.65 L 264.0204 68.35 C 264.0204 69.1875 264.0454 69.65 264.1079 69.75 C 264.2204 70.1125 264.5954 70.3 265.2204 70.3 C 265.8454 70.3 266.2079 70.1125 266.3329 69.75 C 266.3829 69.5875 266.4204 69.125 266.4204 68.3375 L 266.4204 28.5125 C 266.4204 27.7875 266.6579 27.4125 267.1329 27.4125 C 267.4704 27.4125 267.8829 27.5125 268.3579 27.6875 C 283.0579 36.4125 293.2329 42.5875 298.9079 46.2 C 299.1079 46.625 299.2204 47.2625 299.2204 48.1125 L 299.2204 68.3125 C 299.3204 69.1625 299.3204 69.6375 299.2204 69.7375 C 299.3329 70.1125 299.7204 70.3 300.3704 70.3 C 301.0204 70.3 301.4079 70.1125 301.5329 69.75 C 301.5829 69.6 301.6204 69.1375 301.6204 68.35 L 301.6204 18.65 C 301.6204 17.875 301.5829 17.4 301.5329 17.25 C 301.4079 16.8875 301.0204 16.7 300.3704 16.7 C 299.7204 16.7 299.3329 16.8875 299.2204 17.2375 C 299.3204 17.4 299.3204 17.8625 299.2204 18.625 L 299.2204 35.4 C 299.2204 36.475 299.1079 37.0125 298.8954 37.0125 C 298.8204 37.0125 298.5954 36.8125 298.1954 36.4 C 284.4704 28.15 274.0329 21.8125 266.8704 17.3875 C 266.1454 16.9375 265.5579 16.7 265.0954 16.7 L 265.0954 16.7 Z" fill="#000000"/>
			<path d="M 320.0554 19.5625 C 321.4304 19.2125 323.8429 19.05 327.2679 19.1 C 333.5679 19.2 338.9804 21.575 343.5054 26.2 C 348.2179 31.05 350.5804 36.9625 350.5804 43.9625 C 350.5804 50.9125 348.0179 56.7125 342.9054 61.3375 C 338.0929 65.7125 332.4804 67.9 326.0804 67.9 L 320.4179 67.9 C 319.7179 67.9 319.3804 67.55 319.3804 66.825 L 319.3804 20.65 C 319.3804 20.025 319.6054 19.6625 320.0554 19.5625 L 320.0554 19.5625 ZM 324.5054 70.3 C 332.3179 70.3 338.9429 67.9375 344.3804 63.2 C 350.1054 58.1625 352.9804 51.6375 352.9804 43.6125 C 352.9804 35.8625 350.5929 29.45 345.8179 24.35 C 341.0429 19.25 334.8304 16.7 327.1804 16.7 L 314.7679 16.7 C 311.9679 16.7 310.5804 17.35 310.5804 18.65 L 310.5804 68.35 C 310.5804 69.65 311.9679 70.3 314.7679 70.3 L 324.5054 70.3 L 324.5054 70.3 Z" fill="#000000"/>
			<path d="M 366.0404 63.175 C 370.9029 67.925 377.3279 70.3 385.3154 70.3 C 392.7904 70.3 398.8904 67.8125 403.6279 62.825 C 408.3654 57.85 410.7404 51.675 410.7404 44.3 C 410.7404 36.175 408.4404 29.5375 403.8654 24.4 C 399.2779 19.275 393.0904 16.7 385.3154 16.7 C 377.8404 16.7 371.5529 19.45 366.4279 24.9375 C 361.3029 30.4375 358.7404 36.9375 358.7404 44.45 C 358.7404 52.175 361.1654 58.425 366.0404 63.175 L 366.0404 63.175 ZM 371.7654 26.9375 C 375.0404 21.7125 379.8279 19.1 386.1404 19.1 C 392.7904 19.1 398.2279 21.6625 402.4279 26.7875 C 406.3654 31.625 408.3404 37.4875 408.3404 44.3875 C 408.3404 50.7 406.1529 56.2 401.8029 60.875 C 397.4529 65.5625 392.1779 67.9 385.9779 67.9 C 379.8779 67.9 375.2529 65.7625 372.0779 61.4625 C 369.0529 57.375 367.5404 51.6875 367.5404 44.3875 C 367.5404 37.2375 368.9404 31.425 371.7654 26.9375 L 371.7654 26.9375 Z" fill="#000000"/>
			<path d="M 418.3754 16.7 C 417.8004 16.7 417.4754 16.8875 417.3754 17.25 C 417.3254 17.4 417.3004 17.875 417.3004 18.65 L 417.3004 68.35 C 417.3004 69.1875 417.3254 69.65 417.3879 69.75 C 417.5004 70.1125 417.8754 70.3 418.5004 70.3 C 419.1254 70.3 419.4879 70.1125 419.6129 69.75 C 419.6629 69.5875 419.7004 69.125 419.7004 68.3375 L 419.7004 28.5125 C 419.7004 27.7875 419.9379 27.4125 420.4129 27.4125 C 420.7504 27.4125 421.1629 27.5125 421.6379 27.6875 C 436.3379 36.4125 446.5129 42.5875 452.1879 46.2 C 452.3879 46.625 452.5004 47.2625 452.5004 48.1125 L 452.5004 68.3125 C 452.6004 69.1625 452.6004 69.6375 452.5004 69.7375 C 452.6129 70.1125 453.0004 70.3 453.6504 70.3 C 454.3004 70.3 454.6879 70.1125 454.8129 69.75 C 454.8629 69.6 454.9004 69.1375 454.9004 68.35 L 454.9004 18.65 C 454.9004 17.875 454.8629 17.4 454.8129 17.25 C 454.6879 16.8875 454.3004 16.7 453.6504 16.7 C 453.0004 16.7 452.6129 16.8875 452.5004 17.2375 C 452.6004 17.4 452.6004 17.8625 452.5004 18.625 L 452.5004 35.4 C 452.5004 36.475 452.3879 37.0125 452.1754 37.0125 C 452.1004 37.0125 451.8754 36.8125 451.4754 36.4 C 437.7504 28.15 427.3129 21.8125 420.1504 17.3875 C 419.4254 16.9375 418.8379 16.7 418.3754 16.7 L 418.3754 16.7 Z" fill="#000000"/>
		</g>
	</g>
</svg>