<?xml version="1.0" encoding="utf-8"?>
<!-- Generator: Adobe Illustrator 19.0.0, SVG Export Plug-In . SVG Version: 6.00 Build 0)  -->
<svg version="1.1" id="Layer_1" xmlns="http://www.w3.org/2000/svg" xmlns:xlink="http://www.w3.org/1999/xlink" x="0px" y="0px"
	 viewBox="0 0 240 120" enable-background="new 0 0 240 120" xml:space="preserve">
<path fill="#A8DEEF" d="M239.6,122.3h0.7h2v-101c-0.7,0-1.3,0-2,0v0c-60.5,0.2-62.7-17.7-123.2-17.6C57.8,3.9,54.6,20.5-2.7,21.3
	c-0.1,0-0.2,0-0.3,0v101h1.3H239.6z"/>
<path fill="#7CD1EB" d="M240.7,211.6c-59.2-0.1-61.8-17.1-121.9-17c-59.5,0.2-62.5,16.3-120.1,17c-0.4,0-0.9,0-1.3,0v71.9h1.3h241.3
	h0.7h2v-71.9C242,211.6,241.3,211.6,240.7,211.6L240.7,211.6z"/>
<path fill="#1BC4F4" d="M240.3,232.8c-58.8-0.2-61.6-17.2-121.5-17.1c-59.9,0.2-62.6,16.6-121.4,17V283h1.3h241.3h0.7h2v-50.2
	C241.9,232.8,241.1,232.8,240.3,232.8C240.3,232.8,240.3,232.8,240.3,232.8z"/>
</svg>
