<?xml version="1.0" standalone="no"?>
<!-- Generator: Adobe Fireworks 10, Export SVG Extension by Aaron Beall (http://fireworks.abeall.com) . Version: 0.6.1  -->
<!DOCTYPE svg PUBLIC "-//W3C//DTD SVG 1.1//EN" "http://www.w3.org/Graphics/SVG/1.1/DTD/svg11.dtd">
<svg id="Untitled-2.fw-Page%201" viewBox="0 0 140 108" style="background-color:#ffffff00" version="1.1"
	xmlns="http://www.w3.org/2000/svg" xmlns:xlink="http://www.w3.org/1999/xlink" xml:space="preserve"
	x="0px" y="0px" width="140px" height="108px"
>
	<g id="Layer%201">
		<g>
			<path d="M 25.2859 22.9375 L 27.3438 22.9375 L 26.3292 5.9603 L 23.6361 5.9603 L 20.7248 13.8733 C 19.9969 16.3019 19.4146 18.279 19.0022 20.0959 L 18.9294 20.0959 C 18.517 18.2256 17.959 16.2485 17.2796 14.0309 L 14.4896 5.9603 L 11.7965 5.9603 L 10.6563 22.9375 L 12.67 22.9375 L 13.1067 15.41 C 13.2522 12.7793 13.3735 9.836 13.4221 7.6478 L 13.4706 7.6478 C 13.9315 9.7318 14.5866 11.9979 15.363 14.4723 L 18.0075 22.9041 L 19.6087 22.9041 L 22.4958 14.4851 C 23.3207 12.0003 24.0001 9.756 24.5581 7.6478 L 24.6309 7.6478 C 24.6066 9.8895 24.7522 12.9087 24.8735 15.4202 L 25.2859 22.9375 L 25.2859 22.9375 Z" fill="#ffffff"/>
			<path d="M 29.5625 11.0625 L 33.8398 21.7674 C 33.9353 22.0314 33.9831 22.1994 33.9831 22.3195 C 33.9831 22.4395 33.9114 22.6075 33.8159 22.8235 C 33.338 23.9036 32.6211 24.7197 32.0476 25.1757 C 31.4263 25.7038 30.7334 26.0398 30.2077 26.2078 L 30.7334 27.9839 C 31.2591 27.8879 32.2866 27.5279 33.3141 26.6158 C 34.7478 25.3677 35.7753 23.3275 37.2807 19.3432 L 40.4375 11.0625 L 38.2126 11.0625 L 35.9186 17.8791 C 35.6319 18.7191 35.3929 19.6072 35.1779 20.3033 L 35.1301 20.3033 C 34.9389 19.6072 34.6522 18.6951 34.3893 17.9271 L 31.8564 11.0625 L 29.5625 11.0625 L 29.5625 11.0625 Z" fill="#ffffff"/>
			<path d="M 60.0623 20.6243 C 59.2223 21.0466 57.9262 21.3199 56.6541 21.3199 C 52.7177 21.3199 50.4375 18.6867 50.4375 14.5879 C 50.4375 10.1909 52.9577 7.6801 56.7501 7.6801 C 58.0942 7.6801 59.2223 7.9801 60.0143 8.3775 L 60.5184 7.0625 C 59.9663 6.36 58.6942 5.928 56.6781 5.928 C 51.6616 5.928 48.5625 9.4209 48.5625 14.6624 C 48.5625 20.1523 51.6616 23.072 56.222 23.072 C 58.1902 23.072 59.7263 22.688 60.4944 22.3039 L 60.0623 20.6243 L 60.0623 20.6243 Z" fill="#ffffff"/>
			<path d="M 73.4375 11.0625 L 71.5625 11.0625 L 71.5625 18.2814 C 71.5625 18.6704 71.4972 19.0593 71.3867 19.3753 C 71.0332 20.3233 70.1273 21.3199 68.8237 21.3199 C 67.0562 21.3199 66.4375 19.8128 66.4375 17.5765 L 66.4375 11.0625 L 64.5625 11.0625 L 64.5625 17.9411 C 64.5625 22.0639 66.5038 23.072 68.183 23.072 C 70.0831 23.072 71.21 21.8479 71.7116 20.9066 L 71.7542 20.9066 L 71.8607 22.9375 L 73.5335 22.9375 C 73.4615 22.0052 73.4375 20.9256 73.4375 19.6988 L 73.4375 11.0625 L 73.4375 11.0625 Z" fill="#ffffff"/>
			<path d="M 77.2265 22.1832 C 78.009 22.7023 79.1028 23.0397 80.607 23.0397 C 83.9817 23.0397 85.4375 21.4824 85.4375 19.4906 C 85.4375 17.8152 84.4892 16.8379 82.269 16.0932 C 80.33 15.5348 79.4375 15.1159 79.4375 14.1851 C 79.4375 13.3474 80.33 12.6478 81.9305 12.6478 C 83.3154 12.6478 84.1582 13.0216 84.5775 13.3009 L 85.0629 11.7272 C 84.4671 11.318 83.5001 10.9603 81.992 10.9603 C 78.9689 10.9603 77.5625 12.5967 77.5625 14.4178 C 77.5625 15.7675 78.4778 16.8844 80.7917 17.6058 C 82.7922 18.1642 83.5625 18.6994 83.5625 19.6768 C 83.5625 20.6075 82.6383 21.3522 80.6686 21.3522 C 79.3484 21.3522 78.3215 20.9333 77.7411 20.5377 L 77.2265 22.1832 L 77.2265 22.1832 Z" fill="#ffffff"/>
			<path d="M 88.5625 8.1761 L 88.5625 10.9603 L 86.7623 10.9603 L 86.7623 12.6478 L 88.5625 12.6478 L 88.5625 19.106 C 88.5625 20.5002 88.7587 21.5479 89.3039 22.1719 C 89.7618 22.748 90.4855 23.06 91.4696 23.06 C 92.2857 23.06 92.9337 22.94 93.3418 22.772 L 93.2458 21.1851 C 92.9817 21.2585 92.5737 21.3319 92.0217 21.3319 C 90.8456 21.3319 90.4375 20.5002 90.4375 19.0326 L 90.4375 12.6478 L 93.4618 12.6478 L 93.4618 10.9603 L 90.4375 10.9603 L 90.4375 7.624 L 88.5625 8.1761 L 88.5625 8.1761 Z" fill="#ffffff"/>
			<path d="M 102.0964 10.9603 C 98.8494 10.9603 96.5625 13.3241 96.5625 17.0938 C 96.5625 20.6541 98.7283 23.0397 101.9025 23.0397 C 104.7376 23.0397 107.4375 21.0729 107.4375 16.9077 C 107.4375 13.4638 105.4645 10.9603 102.0964 10.9603 L 102.0964 10.9603 ZM 102.0479 12.6478 C 104.5679 12.6478 105.5625 15.0694 105.5625 16.9775 C 105.5625 19.5139 104.0349 21.3522 101.9995 21.3522 C 99.9156 21.3522 98.4375 19.4906 98.4375 17.024 C 98.4375 14.8832 99.5279 12.6478 102.0479 12.6478 L 102.0479 12.6478 Z" fill="#ffffff"/>
			<path d="M 111.5625 22.9375 L 113.4375 22.9375 L 113.4375 15.8487 C 113.4375 15.4846 113.4848 15.1204 113.6029 14.8048 C 113.9335 13.7366 114.8784 12.6681 116.1775 12.6681 C 117.7601 12.6681 118.5625 14.028 118.5625 15.8973 L 118.5625 22.9375 L 120.4375 22.9375 L 120.4375 15.6788 C 120.4375 15.2904 120.5087 14.9019 120.6036 14.6106 C 120.9595 13.5667 121.8849 12.6681 123.0713 12.6681 C 124.7559 12.6681 125.5625 14.028 125.5625 16.2857 L 125.5625 22.9375 L 127.4375 22.9375 L 127.4375 16.0187 C 127.4375 11.9481 125.3491 10.94 123.8305 10.94 C 122.7391 10.94 121.9798 11.228 121.2917 11.7561 C 120.8172 12.1161 120.3723 12.6201 120.0452 13.2754 L 120.0016 13.2754 C 119.5437 11.9001 118.4451 10.94 116.8861 10.94 C 114.9965 10.94 113.9335 11.9721 113.3069 13.0812 L 113.2415 13.0812 L 113.1543 11.0625 L 111.4665 11.0625 C 111.5385 12.0435 111.5625 13.0495 111.5625 14.2763 L 111.5625 22.9375 L 111.5625 22.9375 Z" fill="#ffffff"/>
			<path d="M 47.7031 66.4844 C 50.5625 64.9531 52 63.0156 52 60.6719 C 52 59.4219 51.4219 58.4219 50.2656 57.6563 C 49.1094 56.8906 47.875 56.5 46.5781 56.5 C 44.4531 56.5 42.5625 57.1719 40.9063 58.5156 C 39.25 59.8594 38.4219 61.5625 38.4219 63.6094 C 38.4219 64.4219 38.6719 65.0938 39.2031 65.6094 L 39.7969 64.6719 L 39.7969 64.0938 C 39.7969 62.2813 40.4688 60.7188 41.8125 59.4375 C 43.1563 58.1563 44.7656 57.5 46.625 57.5 C 47.5625 57.5 48.3594 57.7813 49.0156 58.3281 C 49.6719 58.875 50 59.6094 50 60.5313 C 50 62.625 48.8594 64.375 46.5781 65.7656 C 44.6563 66.9219 42.5938 67.5 40.375 67.5 C 38.125 67.5 35.6563 67.125 32.9531 66.375 C 30.9063 65.8125 28.5469 65 25.875 63.875 C 25.875 60.8125 26.125 57.625 26.6563 54.2813 C 27.1719 50.9375 27.8594 47.5781 28.7188 44.1875 C 28.8438 43.7031 29.375 42.6094 30.3125 40.9063 C 31.25 39.2188 31.7344 38.1094 31.7344 37.5781 C 31.7344 36.5781 31.25 36.0625 30.2813 36.0625 C 30.1406 36.0625 29.5 36.2188 28.375 36.5 C 27.9688 36.6094 27.5938 36.6563 27.25 36.6563 C 25.5781 36.6563 24 36.2344 22.5156 35.375 L 21.9219 35.4844 L 21.6875 35.1875 C 21.5469 35.1563 21.1094 35.0469 20.375 34.8281 C 19.6406 34.6094 19.2031 34.5 19.0469 34.5 L 18.8438 34.5 L 18.1719 35.125 L 18.6563 36 C 19.5938 36.1875 20.2031 36.3125 20.4844 36.3438 C 20.7656 36.375 21.1094 36.3906 21.5313 36.3906 L 21.9219 36.8594 C 21.5938 37.4844 21.4844 38.1563 21.5781 38.8906 L 20.7969 39.625 C 20.2344 39.5 19.6875 39.3438 19.1406 39.1875 C 18.5781 39.0313 18.1719 38.8906 17.9219 38.7969 C 17.7813 39.0313 17.6563 39.2813 17.5469 39.5313 C 17.4375 39.7813 17.3906 40 17.3906 40.1563 C 17.3906 40.9375 17.7969 41.3125 18.6094 41.3125 C 18.6719 41.3125 18.9063 41.2969 19.3281 41.25 C 19.75 41.2031 20.0781 41.1719 20.3125 41.1719 C 20.4375 41.1719 20.7031 41.2031 21.0938 41.2656 C 20.9219 41.9844 20.7813 42.7031 20.6719 43.4219 C 20.5625 44.1406 20.4688 44.7969 20.4063 45.3594 C 20.1719 45.2969 19.7813 45.1563 19.2344 44.9375 C 18.2188 44.5156 17.6094 44.2969 17.3906 44.2969 L 16.7031 44.4531 L 16.5 45.3594 L 17.0938 46.4844 L 19.2813 46.6719 C 19.375 46.7969 19.4688 46.9531 19.5313 47.1094 C 19.5938 47.2656 19.6719 47.4531 19.7813 47.6406 C 19.7813 48.8281 19.4375 49.9688 18.75 51.0625 L 15.7188 49.7656 L 14.9844 51.1563 C 15.3438 51.4844 15.7969 51.75 16.3594 51.9375 C 17.5938 52.3906 18.3281 52.7344 18.5625 52.9531 L 18.3125 55.0781 C 18.0156 55.2031 17.7188 55.3125 17.4375 55.4063 C 17.0938 55.4063 16.6875 55.375 16.1875 55.3125 C 15.6875 55.25 15.0938 55.1719 14.4063 55.0781 L 14.3125 56.3281 L 15.1875 57.25 L 17.1875 56.8125 L 17.625 57.0469 C 17.3594 58.7031 16.7188 59.875 15.7188 60.5781 C 15.625 60.6406 14.3594 61.2188 11.9219 62.3125 L 11.1875 63.4844 L 11.7188 64.9688 L 12.2031 65.0156 C 12.5313 65.0156 13.0313 64.6875 13.7188 64.0156 C 14.1094 63.625 14.5156 63.1719 14.9375 62.6563 C 15.4219 64.1719 16.7344 65.4375 18.8906 66.4688 L 24.3125 68.5 L 25.6406 65.1719 C 29.5781 66.4219 32.0156 67.1719 32.9531 67.4375 C 35.7188 68.1406 38.2344 68.5 40.4844 68.5 C 43.0781 68.5 45.4844 67.8281 47.7031 66.4844 L 47.7031 66.4844 Z" fill="#ffffff"/>
			<path d="M 73.4688 61.8438 C 75.8125 59.4063 77 56.6875 77 53.6563 C 77 50.8438 76.0469 48.4375 74.1406 46.4688 C 72.2344 44.5 69.8438 43.5 66.9688 43.5 C 63.75 43.5 60.9531 44.7813 58.5781 47.3125 C 56.1875 49.8438 55 52.6875 55 55.8281 C 55 58.625 55.9844 60.9375 57.9688 62.7656 C 59.9531 64.5938 62.4063 65.5 65.3281 65.5 C 68.4063 65.5 71.125 64.2813 73.4688 61.8438 L 73.4688 61.8438 ZM 72.9063 48.2656 C 74.2969 49.4375 75 51.0156 75 52.9844 C 75 55.6563 74.1563 57.9063 72.5 59.75 C 70.8281 61.5938 68.6875 62.5 66.0781 62.5 C 63.875 62.5 62.1406 61.75 60.8906 60.2188 C 59.625 58.7031 59 56.8125 59 54.5625 C 59 53.6563 59.125 52.6875 59.4063 51.6563 C 59.6875 50.6406 60.0781 49.6563 60.5781 48.7031 L 60.9688 48.8906 C 60.6719 49.6094 60.4375 50.3125 60.2656 50.9688 C 60.0781 51.6406 60 52.2813 60 52.9063 C 60 54.7031 60.5625 56.25 61.7031 57.5469 C 62.8438 58.8594 64.3438 59.5 66.2188 59.5 C 68.0781 59.5 69.6719 58.9375 71 57.7969 C 72.3281 56.6719 73 55.2969 73 53.6875 C 73 52.4688 72.5469 51.4688 71.6719 50.6875 C 70.7969 49.9063 69.6719 49.5 68.3281 49.5 C 67.0625 49.5 66.0313 49.8906 65.2188 50.6406 C 64.4063 51.3906 64 52.3594 64 53.5313 C 64 54.2188 64.1719 54.8594 64.5156 55.4531 C 64.8594 56.0625 65.3594 56.3594 66 56.3594 C 66.4844 56.3594 66.7344 56.1719 66.7344 55.7656 C 66.7344 55.7031 66.5156 55.3438 66.0781 54.6563 C 65.6406 53.9688 65.4219 53.4063 65.4219 52.9375 C 65.4219 52.2188 65.7188 51.6406 66.3438 51.1875 C 66.9531 50.7344 67.6406 50.5 68.4219 50.5 C 69.5 50.5 70.3594 50.8125 71.0156 51.4063 C 71.6719 52 72 52.7813 72 53.7188 C 72 55.0938 71.4531 56.2344 70.3906 57.1406 C 69.3125 58.0469 67.9688 58.5 66.3438 58.5 C 64.7813 58.5 63.5 57.9844 62.5 56.9219 C 61.5 55.8594 61 54.6406 61 53.2656 C 61 51.4219 61.6406 49.8281 62.9531 48.5 C 64.2656 47.1719 65.8594 46.5 67.75 46.5 C 69.7969 46.5 71.5156 47.0938 72.9063 48.2656 L 72.9063 48.2656 Z" fill="#ffffff"/>
			<path d="M 102.3281 46.9531 L 102.125 45.5625 L 96.1875 46.2188 C 94.6719 43.75 92.4219 42.5 89.4531 42.5 C 87.2969 42.5 85.5156 43.2031 84.1094 44.6094 C 82.7031 46.0156 82 47.7969 82 49.9375 C 82 52.875 83.1875 55.0625 85.5938 56.5 L 81.5625 61.6406 L 82 62.8594 L 82.9688 63.4063 C 84.0313 63.0156 85.1563 62.5938 86.3281 62.1563 C 87.4844 61.7188 88.5625 61.5 89.5469 61.5 C 91.4219 61.5 92.9531 61.9531 94.1719 62.8594 C 95.3906 63.7656 96 65.125 96 66.9531 C 96 69.4219 95.2969 71.5938 93.9219 73.4688 C 92.4219 75.4844 90.5156 76.5 88.2031 76.5 C 86.8281 76.5 85.6094 75.9063 84.5625 74.75 C 83.5156 73.5781 83 72.25 83 70.7656 C 83 69.0469 83.5156 67.5625 84.5781 66.3438 C 85.6406 65.125 86.9844 64.5 88.625 64.5 C 89.7188 64.5 90.5469 64.8906 91.125 65.6563 C 91.7031 66.4063 92 67.3594 92 68.5156 C 92 69.3906 91.6875 70.1875 91.0938 70.9375 C 90.5 71.6563 89.7969 72.0313 88.9844 72.0313 C 88.4844 72.0313 88.0781 71.9063 87.7344 71.6719 C 87.3906 71.4063 87.2344 71.0625 87.2344 70.6094 C 87.3281 70.375 87.3906 70.2031 87.4531 70.125 C 87.5 70.0156 87.5781 69.875 87.6719 69.6875 L 88.3594 69.4375 L 88.9844 68.2656 L 88.5938 67.1875 C 88.4688 67.0938 88.3125 67 88.1563 66.9531 C 88 66.875 87.8125 66.7969 87.625 66.7031 C 86.8438 66.7031 86.2031 67 85.7188 67.6406 C 85.2344 68.25 85 68.9688 85 69.7813 C 85 70.7188 85.3594 71.5625 86.0781 72.3281 C 86.7969 73.0625 87.625 73.4375 88.5313 73.4375 C 89.75 73.4375 90.7969 72.8906 91.6719 71.8281 C 92.5469 70.75 93 69.5625 93 68.2656 C 93 66.8594 92.5313 65.7188 91.625 64.8438 C 90.7031 63.9531 89.5625 63.5 88.1875 63.5 C 86.1094 63.5 84.3906 64.3281 83.0313 65.9844 C 81.6719 67.625 81 69.5156 81 71.6563 C 81 73.5156 81.75 75.1406 83.2813 76.5469 C 84.7031 77.8438 86.3125 78.5 88.125 78.5 C 90.9375 78.5 93.4531 77.2969 95.6719 74.8906 C 97.8906 72.4844 99 69.8281 99 66.9531 C 99 64.4531 98.2969 62.5938 96.8906 61.3594 C 95.4844 60.125 93.5938 59.5 91.25 59.5 C 90.4375 59.5 89.625 59.5625 88.8438 59.6719 C 88.0469 59.7813 87.0625 59.9531 85.9063 60.1719 L 87.6094 57.5 L 88.75 57.5 C 91.1563 57.5 93.0781 56.9063 94.5313 55.7188 C 96.1719 54.375 97 52.4531 97 49.9688 C 97 49.7188 96.9531 49.3438 96.8594 48.8594 C 96.7656 48.3906 96.6719 48.0156 96.6094 47.75 L 102.3281 46.9531 L 102.3281 46.9531 ZM 92.3125 45.8438 C 92.7656 46.3438 93 46.9219 93 47.5625 C 93 49.1563 92.5938 50.6563 91.8125 52.0625 C 90.875 53.6875 89.7031 54.5 88.2813 54.5 C 87.4219 54.5 86.8281 54.2188 86.5 53.6563 C 86.1563 53.0938 86 52.3281 86 51.375 C 86 49.9844 86.4688 48.5938 87.4063 47.1875 C 88.3438 45.7813 89.4375 45.0781 90.7188 45.0781 C 91.3125 45.0781 91.8438 45.3438 92.3125 45.8438 L 92.3125 45.8438 Z" fill="#ffffff"/>
			<path d="M 123.4688 61.8438 C 125.8125 59.4063 127 56.6875 127 53.6563 C 127 50.8438 126.0469 48.4375 124.1406 46.4688 C 122.2344 44.5 119.8438 43.5 116.9688 43.5 C 113.75 43.5 110.9531 44.7813 108.5781 47.3125 C 106.1875 49.8438 105 52.6875 105 55.8281 C 105 58.625 105.9844 60.9375 107.9688 62.7656 C 109.9531 64.5938 112.4063 65.5 115.3281 65.5 C 118.4063 65.5 121.125 64.2813 123.4688 61.8438 L 123.4688 61.8438 ZM 122.9063 48.2656 C 124.2969 49.4375 125 51.0156 125 52.9844 C 125 55.6563 124.1563 57.9063 122.5 59.75 C 120.8281 61.5938 118.6875 62.5 116.0781 62.5 C 113.875 62.5 112.1406 61.75 110.8906 60.2188 C 109.625 58.7031 109 56.8125 109 54.5625 C 109 53.6563 109.125 52.6875 109.4063 51.6563 C 109.6875 50.6406 110.0781 49.6563 110.5781 48.7031 L 110.9688 48.8906 C 110.6719 49.6094 110.4375 50.3125 110.2656 50.9688 C 110.0781 51.6406 110 52.2813 110 52.9063 C 110 54.7031 110.5625 56.25 111.7031 57.5469 C 112.8438 58.8594 114.3438 59.5 116.2188 59.5 C 118.0781 59.5 119.6719 58.9375 121 57.7969 C 122.3281 56.6719 123 55.2969 123 53.6875 C 123 52.4688 122.5469 51.4688 121.6719 50.6875 C 120.7969 49.9063 119.6719 49.5 118.3281 49.5 C 117.0625 49.5 116.0313 49.8906 115.2188 50.6406 C 114.4063 51.3906 114 52.3594 114 53.5313 C 114 54.2188 114.1719 54.8594 114.5156 55.4531 C 114.8594 56.0625 115.3594 56.3594 116 56.3594 C 116.4844 56.3594 116.7344 56.1719 116.7344 55.7656 C 116.7344 55.7031 116.5156 55.3438 116.0781 54.6563 C 115.6406 53.9688 115.4219 53.4063 115.4219 52.9375 C 115.4219 52.2188 115.7188 51.6406 116.3438 51.1875 C 116.9531 50.7344 117.6406 50.5 118.4219 50.5 C 119.5 50.5 120.3594 50.8125 121.0156 51.4063 C 121.6719 52 122 52.7813 122 53.7188 C 122 55.0938 121.4531 56.2344 120.3906 57.1406 C 119.3125 58.0469 117.9688 58.5 116.3438 58.5 C 114.7813 58.5 113.5 57.9844 112.5 56.9219 C 111.5 55.8594 111 54.6406 111 53.2656 C 111 51.4219 111.6406 49.8281 112.9531 48.5 C 114.2656 47.1719 115.8594 46.5 117.75 46.5 C 119.7969 46.5 121.5156 47.0938 122.9063 48.2656 L 122.9063 48.2656 Z" fill="#ffffff"/>
			<path d="M 9.0625 99.0375 L 10.9375 99.0375 L 10.9375 92.7991 C 11.4459 92.9196 12.056 92.9438 12.717 92.9438 C 14.8778 92.9438 16.7844 92.341 17.8166 91.1474 C 18.5491 90.1952 18.9375 88.8893 18.9375 87.2297 C 18.9375 85.5973 18.463 84.2642 17.6658 83.4298 C 16.759 82.5493 15.1574 82.0603 12.9712 82.0603 C 11.1917 82.0603 9.9674 82.2068 9.0625 82.3781 L 9.0625 99.0375 L 9.0625 99.0375 ZM 10.9375 83.9377 C 11.3188 83.8289 12.056 83.7478 13.022 83.7478 C 15.4625 83.7478 17.0625 84.9171 17.0625 87.3385 C 17.0625 89.8687 15.4371 91.2562 12.7678 91.2562 C 12.0306 91.2562 11.4205 91.2018 10.9375 91.0658 L 10.9375 83.9377 L 10.9375 83.9377 Z" fill="#ffffff"/>
			<path d="M 22.0625 99.0375 L 23.9375 99.0375 L 23.9375 82.1625 L 22.0625 82.1625 L 22.0625 99.0375 L 22.0625 99.0375 Z" fill="#ffffff"/>
			<path d="M 36.1295 99.0375 C 35.9855 98.2233 35.9375 97.2117 35.9375 96.1754 L 35.9375 91.5605 C 35.9375 89.4886 35.1436 87.0603 31.5869 87.0603 C 30.0622 87.0603 28.6601 87.502 27.808 88.1768 L 28.2341 89.4886 C 28.9625 89.0365 30.1372 88.7478 31.2619 88.7478 C 33.7363 88.7478 34.0113 90.2286 34.0113 91.0507 L 34.0113 91.2562 C 29.3374 91.2357 27.0625 92.9925 27.0625 95.8793 C 27.0625 97.3587 28.1276 99.1397 30.4371 99.1397 C 32.1617 99.1397 33.4614 98.2572 34.1287 97.2887 L 34.1949 97.2887 L 34.3493 99.0375 L 36.1295 99.0375 L 36.1295 99.0375 ZM 34.0625 95.0158 C 34.0625 95.1161 34.0113 95.3497 33.9363 95.5599 C 33.5864 96.5177 32.5866 97.4522 31.012 97.4522 C 29.8873 97.4522 28.9375 96.8214 28.9375 95.4898 C 28.9375 93.2939 31.6618 92.8884 34.0625 92.9438 L 34.0625 95.0158 L 34.0625 95.0158 Z" fill="#ffffff"/>
			<path d="M 47.5621 96.8783 C 46.962 97.1413 46.17 97.4522 44.9699 97.4522 C 42.6657 97.4522 40.9375 95.8024 40.9375 93.1244 C 40.9375 90.7094 42.3776 88.7478 45.0419 88.7478 C 46.194 88.7478 46.986 89.0118 47.4901 89.2987 L 47.9701 87.6629 C 47.3941 87.3736 46.29 87.0603 45.0419 87.0603 C 41.2495 87.0603 39.0625 89.6573 39.0625 93.22 C 39.0625 96.7588 41.0815 99.1397 44.5858 99.1397 C 46.146 99.1397 47.3701 98.754 47.9221 98.4646 L 47.5621 96.8783 L 47.5621 96.8783 Z" fill="#ffffff"/>
			<path d="M 59.8718 93.9438 C 59.8938 93.7027 59.9375 93.3278 59.9375 92.8458 C 59.9375 90.6123 59.0113 87.0603 55.3327 87.0603 C 51.985 87.0603 50.0625 90.0235 50.0625 93.7295 C 50.0625 96.8255 52.0562 99.1397 55.5939 99.1397 C 57.4221 99.1397 58.6362 98.7427 59.3202 98.3954 L 58.9892 96.9299 C 58.2611 97.2224 57.3746 97.4522 55.8788 97.4522 C 53.7894 97.4522 51.985 96.4286 51.9375 93.9438 L 59.8718 93.9438 L 59.8718 93.9438 ZM 51.9613 92.2562 C 52.1275 90.7595 53.0534 88.7478 55.1665 88.7478 C 57.517 88.7478 58.0846 90.8822 58.0625 92.2562 L 51.9613 92.2562 L 51.9613 92.2562 Z" fill="#ffffff"/>
			<path d="M 64.0625 82.1625 L 64.0625 99.0375 L 65.9375 99.0375 L 65.9375 92.0121 L 74.0625 92.0121 L 74.0625 99.0375 L 75.9375 99.0375 L 75.9375 82.1625 L 74.0625 82.1625 L 74.0625 90.1879 L 65.9375 90.1879 L 65.9375 82.1625 L 64.0625 82.1625 L 64.0625 82.1625 Z" fill="#ffffff"/>
			<path d="M 84.5964 87.0603 C 81.3494 87.0603 79.0625 89.4241 79.0625 93.1938 C 79.0625 96.7541 81.2283 99.1397 84.4025 99.1397 C 87.2376 99.1397 89.9375 97.1729 89.9375 93.0077 C 89.9375 89.5638 87.9645 87.0603 84.5964 87.0603 L 84.5964 87.0603 ZM 84.5479 88.7478 C 87.0679 88.7478 88.0625 91.1694 88.0625 93.0775 C 88.0625 95.6139 86.5349 97.4522 84.4995 97.4522 C 82.4156 97.4522 80.9375 95.5906 80.9375 93.124 C 80.9375 90.9832 82.0279 88.7478 84.5479 88.7478 L 84.5479 88.7478 Z" fill="#ffffff"/>
			<path d="M 94.0625 99.0375 L 95.9375 99.0375 L 95.9375 82.1625 L 94.0625 82.1625 L 94.0625 99.0375 L 94.0625 99.0375 Z" fill="#ffffff"/>
			<path d="M 108.0625 82.1625 L 108.0625 88.8672 L 108.0116 88.8672 C 107.4436 87.9162 106.1527 87.0603 104.2422 87.0603 C 101.1957 87.0603 99.0385 89.4612 99.0625 93.2862 C 99.0625 96.7786 100.9633 99.148 103.984 99.148 C 106.0236 99.148 107.5469 98.1639 108.2116 96.8737 L 108.2542 96.8737 L 108.3394 99.0375 L 110.0335 99.0375 C 109.9615 98.2404 109.9375 97.0569 109.9375 96.0182 L 109.9375 82.1625 L 108.0625 82.1625 L 108.0625 82.1625 ZM 108.0625 94.1341 C 108.0625 94.4723 108.0374 94.7622 107.96 95.052 C 107.5469 96.5173 106.1527 97.4439 104.6295 97.4439 C 102.1768 97.4439 100.9375 95.5195 100.9375 93.1912 C 100.9375 90.6491 102.3317 88.7478 104.6811 88.7478 C 106.3851 88.7478 107.6243 89.8413 107.96 91.1718 C 108.0374 91.4331 108.0625 91.7895 108.0625 92.0508 L 108.0625 94.1341 L 108.0625 94.1341 Z" fill="#ffffff"/>
			<path d="M 122.8718 93.9438 C 122.8938 93.7027 122.9375 93.3278 122.9375 92.8458 C 122.9375 90.6123 122.0113 87.0603 118.3327 87.0603 C 114.985 87.0603 113.0625 90.0235 113.0625 93.7295 C 113.0625 96.8255 115.0562 99.1397 118.5939 99.1397 C 120.4221 99.1397 121.6362 98.7427 122.3202 98.3954 L 121.9892 96.9299 C 121.2611 97.2224 120.3746 97.4522 118.8788 97.4522 C 116.7894 97.4522 114.985 96.4286 114.9375 93.9438 L 122.8718 93.9438 L 122.8718 93.9438 ZM 114.9613 92.2562 C 115.1275 90.7595 116.0534 88.7478 118.1665 88.7478 C 120.517 88.7478 121.0846 90.8822 121.0625 92.2562 L 114.9613 92.2562 L 114.9613 92.2562 Z" fill="#ffffff"/>
			<path d="M 127.0625 99.0375 L 128.9375 99.0375 L 128.9375 92.593 C 128.9375 92.2184 128.9855 91.8687 129.0335 91.5689 C 129.3215 89.9203 130.3776 88.7478 131.8658 88.7478 C 132.1538 88.7478 132.3698 88.7713 132.5858 88.8213 L 132.5858 87.1625 C 132.3938 87.0812 132.2258 87.0603 131.9858 87.0603 C 130.5697 87.0603 129.2975 87.8942 128.7861 89.3208 L 128.7 89.3208 L 128.6353 87.1625 L 126.9665 87.1625 C 127.0385 88.2662 127.0625 89.4684 127.0625 90.867 L 127.0625 99.0375 L 127.0625 99.0375 Z" fill="#ffffff"/>
		</g>
	</g>
</svg>